HIERARCHY
ROOT Hips
{
	OFFSET 0.00000 0.00000 0.00000
	CHANNELS 6 Xposition Yposition Zposition Zrotation Yrotation Xrotation 
	JOINT LHipJoint
	{
		OFFSET 0 0 0
		CHANNELS 3 Zrotation Yrotation Xrotation
		JOINT LeftHip
		{
			OFFSET 1.27966 -1.91611 0.81506
			CHANNELS 3 Zrotation Yrotation Xrotation
			JOINT LeftKnee
			{
				OFFSET 2.49511 -6.85528 0.00000
				CHANNELS 3 Zrotation Yrotation Xrotation
				JOINT LeftAnkle
				{
					OFFSET 2.67286 -7.34045 0.00000
					CHANNELS 3 Zrotation Yrotation Xrotation
					JOINT LeftToe
					{
						OFFSET 0.22740 -0.62477 2.32102
						CHANNELS 3 Zrotation Yrotation Xrotation
						End Site
						{
							OFFSET 0.00000 -0.00000 1.20480
						}
					}
				}
			}
		}
	}
	JOINT RHipJoint
	{
		OFFSET 0 0 0
		CHANNELS 3 Zrotation Yrotation Xrotation
		JOINT RightHip
		{
			OFFSET -1.09666 -1.91611 0.81505
			CHANNELS 3 Zrotation Yrotation Xrotation
			JOINT RightKnee
			{
				OFFSET -2.51373 -6.90642 0.00000
				CHANNELS 3 Zrotation Yrotation Xrotation
				JOINT RightAnkle
				{
					OFFSET -2.70173 -7.42295 0.00000
					CHANNELS 3 Zrotation Yrotation Xrotation
					JOINT RightToe
					{
						OFFSET -0.22214 -0.61032 2.18267
						CHANNELS 3 Zrotation Yrotation Xrotation
						End Site
						{
							OFFSET -0.00000 -0.00000 1.13683
						}
					}
				}
			}
		}
	}
	JOINT lowerback
	{
		OFFSET 0 0 0
		CHANNELS 3 Zrotation Yrotation Xrotation
		JOINT Chest
		{
			OFFSET -0.00990 2.16804 -0.08389
			CHANNELS 3 Zrotation Yrotation Xrotation
			JOINT Chest2
			{
				OFFSET 0.06407 2.15456 0.07285
				CHANNELS 3 Zrotation Yrotation Xrotation
				JOINT lowerneck
				{
					OFFSET 0 0 0
					CHANNELS 3 Zrotation Yrotation Xrotation
					JOINT Neck
					{
						OFFSET -0.16931 1.61602 0.24462
						CHANNELS 3 Zrotation Yrotation Xrotation
						JOINT Head
						{
							OFFSET 0.21556 1.63376 -0.33896
							CHANNELS 3 Zrotation Yrotation Xrotation
							End Site
							{
								OFFSET 0.08444 1.69244 -0.14900
							}
						}
					}
				}
				JOINT LeftCollar
				{
					OFFSET 0 0 0
					CHANNELS 3 Zrotation Yrotation Xrotation
					JOINT LeftShoulder
					{
						OFFSET 2.89000 1.40150 -0.54392
CHANNELS 3 Zrotation Xrotation Yrotation
						JOINT LeftElbow
						{
OFFSET 0 -5.107550 0.000000
CHANNELS 3 Zrotation Xrotation Yrotation
							JOINT LeftWrist
							{
OFFSET 0 -3.362530 0.000000
CHANNELS 3 Zrotation Xrotation Yrotation
								JOINT lhand
								{
									OFFSET 0 0 0
CHANNELS 3 Zrotation Xrotation Yrotation
									JOINT LFingers
									{
OFFSET 0 -0.619090 0.000000
CHANNELS 3 Zrotation Xrotation Yrotation
										End Site
										{
OFFSET 0 -0.499120 0.000000
										}
									}
								}
								JOINT LThumb
								{
OFFSET 0 0.000000 0.000000
CHANNELS 3 Zrotation Xrotation Yrotation
									End Site
									{
OFFSET 0 -0.506750 0.506750
									}
								}
							}
						}
					}
				}
				JOINT RightCollar
				{
					OFFSET 0 0 0
					CHANNELS 3 Zrotation Yrotation Xrotation
					JOINT RightShoulder
					{
						OFFSET -2.65771 1.70968 -0.54312
CHANNELS 3 Zrotation Xrotation Yrotation
						JOINT RightElbow
						{
OFFSET 0 -5.273870 0.000000
CHANNELS 3 Zrotation Xrotation Yrotation
							JOINT RightWrist
							{
OFFSET 0 -3.401440 0.000000
CHANNELS 3 Zrotation Xrotation Yrotation
								JOINT rhand
								{
									OFFSET 0 0 0
CHANNELS 3 Zrotation Xrotation Yrotation
									JOINT RFingers
									{
OFFSET 0 -0.742820 0.000000
CHANNELS 3 Zrotation Xrotation Yrotation
										End Site
										{
OFFSET 0 -0.598880 0.000000
										}
									}
								}
								JOINT RThumb
								{
OFFSET 0 0.000000 0.000000
CHANNELS 3 Zrotation Xrotation Yrotation
									End Site
									{
OFFSET 0 -0.608030 0.608030
									}
								}
							}
						}
					}
				}
			}
		}
	}
}
MOTION
Frames: 10
Frame Time: 0.008333333333333333
-6.564881 17.587225 38.877273 172.954327 -138.285130 -180.492205 0.000000 0.000000 0.000000 -8.661061 -2.275026 -21.998172 6.865871 15.215887 48.361673 0.351978 -2.842640 -10.582285 0.565643 -4.788429 -13.311808 0.000000 0.000000 0.000000 31.974189 2.951530 1.235493 -2.421328 -9.693042 27.988444 -0.870862 0.085889 -17.617233 -0.305741 3.554298 -9.826026 2.829339 0.922328 9.782086 4.399058 1.703847 0.847404 2.770154 0.806175 -4.661327 -18.556895 -8.106299 -12.315053 12.815289 -10.529697 21.681994 6.261146 -5.152376 10.695768 0.000000 0.000000 0.000000 -4.326309 11.123454 -15.623426 14.356121 -23.241526 2.967245 11.329841 12.188469 -28.761311 0.000000 0.000000 0.000000 -7.125000 0.000000 0.000000 -21.596441 57.887182 7.027244 0.000000 0.000000 0.000000 -7.947668 -1.512069 16.835198 -16.646461 -26.388985 -3.929181 -23.174224 -5.916058 -10.851962 0.000000 0.000000 0.000000 7.125000 0.000000 0.000000 2.751740 18.209021 1.756122
-7.104020 17.641021 39.693250 170.517017 -136.175062 -176.710868 0.000000 0.000000 0.000000 -7.734749 -4.270016 -23.450499 2.219929 9.305677 26.759315 0.360407 0.037720 -11.329245 0.375178 -3.897235 -10.792441 0.000000 0.000000 0.000000 32.743291 1.507622 6.095131 -1.391795 -7.463237 21.095475 -0.801112 1.730213 -16.431227 -0.557953 4.783417 -13.292048 4.802070 1.608261 8.931453 4.544106 2.803447 0.260195 1.685535 1.304362 -4.745776 -20.922958 -8.127378 -11.008273 14.357242 -10.635927 21.060083 7.249271 -5.289317 10.484974 0.000000 0.000000 0.000000 -4.314238 12.741166 -13.421479 13.552958 -22.092062 2.657647 11.127971 12.342836 -28.848472 0.000000 0.000000 0.000000 -7.125000 0.000000 0.000000 -21.864202 57.924345 7.139615 0.000000 0.000000 0.000000 -9.391932 -3.615686 21.585684 -18.595091 -28.911933 -4.833811 -22.718954 -6.360626 -11.849235 0.000000 0.000000 0.000000 7.125000 0.000000 0.000000 3.112604 17.177335 2.057568
-7.623797 17.502224 40.612847 169.749960 -134.755953 -174.983588 0.000000 0.000000 0.000000 -8.831383 -4.270292 -26.051205 1.661007 8.120670 23.081419 0.455131 -2.367299 -12.139859 0.364369 -3.874194 -10.723346 0.000000 0.000000 0.000000 31.451825 -0.591354 9.978014 -1.011669 -6.399508 17.948119 -0.897560 3.950429 -17.011822 -0.756433 5.542716 -15.466208 5.694281 1.719586 8.293505 4.325687 2.963837 0.343808 0.960739 1.371664 -4.241599 -19.125142 -8.272246 -12.729203 11.700869 -10.276524 21.963467 5.963815 -5.177316 10.809898 0.000000 0.000000 0.000000 -4.412110 13.257281 -11.222575 13.895384 -22.584921 2.787804 10.959880 11.837822 -29.101615 0.000000 0.000000 0.000000 -7.125000 0.000000 0.000000 -22.218677 58.121066 7.369871 0.000000 0.000000 0.000000 -9.886582 -6.046384 25.041889 -20.093927 -30.754320 -5.579796 -23.020885 -7.181385 -12.233542 0.000000 0.000000 0.000000 7.125000 0.000000 0.000000 2.919747 16.734735 1.958026
-8.188702 17.422362 41.531235 169.441077 -132.707908 -175.245863 0.000000 0.000000 0.000000 -9.134406 -4.648438 -25.254834 2.328699 9.519470 27.434252 0.048826 -0.652248 -3.981558 0.480161 -4.440718 -12.320439 0.000000 0.000000 0.000000 31.472071 1.605599 13.414299 -1.463054 -7.643085 21.635750 -0.890595 2.894780 -17.092119 -1.150453 6.809332 -19.152052 4.876797 2.347893 9.568507 4.463524 3.813468 0.573583 1.410854 1.799517 -4.759435 -20.315558 -8.723327 -11.944902 12.731483 -11.038025 21.439162 6.431886 -5.540308 10.750068 0.000000 0.000000 0.000000 -4.515529 11.608014 -9.202744 12.497349 -20.546327 2.273828 12.063307 13.286474 -29.120959 0.000000 0.000000 0.000000 -7.125000 0.000000 0.000000 -21.102584 58.379661 7.109464 0.000000 0.000000 0.000000 -9.197972 -5.344566 24.056285 -21.012341 -31.842465 -6.056604 -23.674344 -7.416823 -12.501031 0.000000 0.000000 0.000000 7.125000 0.000000 0.000000 2.479877 16.379447 1.681763
-8.810753 17.552416 42.624516 170.537868 -132.082985 -176.478975 0.000000 0.000000 0.000000 -11.803699 -1.409086 -22.829055 2.739208 10.260514 29.824447 -0.018949 -3.366120 -1.241464 0.158022 -2.561025 -7.058790 0.000000 0.000000 0.000000 28.325781 1.263705 10.152807 -3.432845 -11.364644 33.519943 -0.136966 4.623779 -6.866758 -0.600642 4.959342 -13.792903 4.049682 1.921933 9.304194 4.238001 3.153444 0.318618 1.727786 1.490100 -4.913894 -20.191330 -8.611458 -11.330851 12.538449 -11.076028 22.067085 6.366269 -5.612367 10.846904 0.000000 0.000000 0.000000 -4.762841 11.933431 -7.967319 13.076106 -21.398611 2.480958 11.875719 12.710957 -29.715487 0.000000 0.000000 0.000000 -7.125000 0.000000 0.000000 -21.733268 58.888225 7.603173 0.000000 0.000000 0.000000 -6.124358 -3.087548 18.867534 -18.250201 -28.476262 -4.667940 -23.083898 -5.115743 -11.738962 0.000000 0.000000 0.000000 7.125000 0.000000 0.000000 2.853013 17.261042 1.880368
-9.341392 17.646496 43.621776 177.392038 -131.386449 -182.400130 0.000000 0.000000 0.000000 -18.766074 3.144796 -18.672832 2.581562 9.984639 28.927002 -0.009027 -6.287922 -4.161889 0.360163 -3.854723 -10.668447 0.000000 0.000000 0.000000 18.421743 -1.553640 -1.579910 -8.219290 -16.275348 53.344140 -0.374549 -0.946220 11.277034 -0.028591 0.807376 -2.221307 -0.287990 1.627181 9.732571 2.800853 2.251833 0.614057 2.773838 1.139012 -4.945371 -20.014164 -8.980871 -11.380331 12.804539 -11.680654 21.717252 6.323887 -5.841424 10.848445 0.000000 0.000000 0.000000 -3.046806 10.552588 -13.593598 14.287372 -23.143764 2.940241 11.270318 9.687409 -29.170837 0.000000 0.000000 0.000000 -7.125000 0.000000 0.000000 -21.952174 58.252287 7.345888 0.000000 0.000000 0.000000 -4.734345 0.164892 18.974861 -16.826058 -26.626649 -4.009753 -21.520893 -4.695833 -11.677845 0.000000 0.000000 0.000000 7.125000 0.000000 0.000000 3.942901 17.471837 2.583408
-9.796247 17.609825 44.349192 181.688900 -132.760756 -186.737497 0.000000 0.000000 0.000000 -22.780948 4.702836 -15.156275 2.707058 10.205036 29.643305 0.071112 -8.190342 -7.087096 0.222468 -3.035867 -8.378577 0.000000 0.000000 0.000000 12.656813 -3.024415 -11.605145 -12.716771 -18.676586 68.242459 -0.011312 -10.554001 7.540022 -0.161212 -2.583875 7.122370 -4.542740 0.681338 11.953627 2.546472 0.427693 0.831773 5.199222 0.352177 -5.893544 -20.679360 -9.441096 -10.502029 13.153292 -12.362567 20.561214 6.441109 -6.185734 10.464592 0.000000 0.000000 0.000000 -0.975345 7.588626 -19.735048 15.675274 -25.078258 3.507262 13.184994 6.465303 -28.848570 0.000000 0.000000 0.000000 -7.125000 0.000000 0.000000 -19.752416 58.371738 6.626723 0.000000 0.000000 0.000000 -4.324928 1.894931 17.633261 -15.056081 -24.224217 -3.248935 -21.281663 -2.126838 -12.198609 0.000000 0.000000 0.000000 7.125000 0.000000 0.000000 4.127699 16.939585 2.753202
-10.203903 17.572482 44.938371 182.646075 -133.576139 -187.020800 0.000000 0.000000 0.000000 -24.084154 4.048031 -12.857702 2.816914 10.392563 30.257520 0.250841 -8.416578 -9.975581 0.169030 -2.646177 -7.295313 0.000000 0.000000 0.000000 11.926834 -1.886241 -19.536383 -13.045319 -18.798193 69.266039 0.018763 -3.930671 -4.681733 -0.048558 1.410684 -3.879738 -5.426865 0.056349 11.199914 2.109901 -0.509516 1.596005 5.375026 -0.155180 -4.544795 -20.632707 -10.780072 -8.767278 14.416794 -14.738497 18.525271 6.508018 -7.214160 9.974747 0.000000 0.000000 0.000000 1.839868 1.098401 -20.918926 15.953067 -25.456753 3.625848 14.954458 6.698616 -29.034381 0.000000 0.000000 0.000000 -7.125000 0.000000 0.000000 -18.034927 58.940858 6.272893 0.000000 0.000000 0.000000 -2.582133 1.769868 11.452148 -13.182888 -21.552378 -2.521544 -21.906417 1.185667 -13.461780 0.000000 0.000000 0.000000 7.125000 0.000000 0.000000 3.747334 15.533852 2.612697
-10.591717 17.589975 45.426489 182.482699 -133.957539 -185.878232 0.000000 0.000000 0.000000 -24.378526 4.847721 -11.454182 2.678838 10.156003 29.483410 0.492110 -8.353011 -12.950241 0.568696 -4.829530 -13.423085 0.000000 0.000000 0.000000 12.958289 2.565729 -22.823990 -9.450571 -17.087964 57.634095 -0.403580 1.368294 -11.605751 -0.240256 2.997843 -8.281659 -5.530464 -0.874835 10.735797 1.999728 -1.736716 1.434381 5.473336 -0.770462 -4.292149 -20.920481 -12.112395 -6.660492 15.572394 -17.152638 17.108044 6.612898 -8.358098 9.707301 0.000000 0.000000 0.000000 4.026862 -3.120696 -20.268553 16.591660 -26.316136 3.904668 16.648041 5.994968 -29.453025 0.000000 0.000000 0.000000 -7.125000 0.000000 0.000000 -16.525242 59.728541 6.041714 0.000000 0.000000 0.000000 -2.395700 4.322637 14.764362 -13.365105 -21.819597 -2.587537 -21.238322 -0.354187 -12.308810 0.000000 0.000000 0.000000 7.125000 0.000000 0.000000 4.161757 16.826469 2.786193
-11.002425 17.640394 45.868939 182.970554 -133.732503 -185.378090 0.000000 0.000000 0.000000 -24.866839 5.698672 -8.958912 2.278241 9.423097 27.127959 0.441924 -8.486166 -12.406878 0.206129 -2.922069 -8.061861 0.000000 0.000000 0.000000 13.275540 7.278458 -22.123249 -5.142113 -13.540957 41.430811 -0.498741 2.164620 -12.769632 -0.908714 6.071560 -16.993144 -6.252471 -1.771528 10.355003 1.853585 -2.996617 1.358240 5.875296 -1.395453 -3.960993 -21.181427 -13.445883 -4.548769 17.253370 -19.603465 15.256512 6.885588 -9.519263 9.405130 0.000000 0.000000 0.000000 6.462597 -5.596992 -22.015710 17.955577 -28.100155 4.528345 16.667170 3.089912 -29.611486 0.000000 0.000000 0.000000 -7.125000 0.000000 0.000000 -16.614302 59.885304 6.137810 0.000000 0.000000 0.000000 -1.510594 3.556291 11.881567 -11.980232 -19.770216 -2.099009 -20.645768 4.609773 -14.205958 0.000000 0.000000 0.000000 7.125000 0.000000 0.000000 4.643952 14.877209 3.307559
